<?xml version="1.0" encoding="UTF-8" standalone="no"?>
<!-- Created with Inkscape (http://www.inkscape.org/) -->

<svg
   xmlns:dc="http://purl.org/dc/elements/1.1/"
   xmlns:cc="http://creativecommons.org/ns#"
   xmlns:rdf="http://www.w3.org/1999/02/22-rdf-syntax-ns#"
   xmlns:svg="http://www.w3.org/2000/svg"
   xmlns="http://www.w3.org/2000/svg"
   xmlns:sodipodi="http://sodipodi.sourceforge.net/DTD/sodipodi-0.dtd"
   xmlns:inkscape="http://www.inkscape.org/namespaces/inkscape"
   width="412.09662"
   height="382.06696"
   id="svg2"
   version="1.1"
   inkscape:version="0.47 r22583"
   sodipodi:docname="Novo documento 1">
  <defs
     id="defs4">
    <inkscape:perspective
       sodipodi:type="inkscape:persp3d"
       inkscape:vp_x="0 : 526.18109 : 1"
       inkscape:vp_y="0 : 1000 : 0"
       inkscape:vp_z="744.09448 : 526.18109 : 1"
       inkscape:persp3d-origin="372.04724 : 350.78739 : 1"
       id="perspective10" />
    <inkscape:perspective
       id="perspective2824"
       inkscape:persp3d-origin="0.5 : 0.33333333 : 1"
       inkscape:vp_z="1 : 0.5 : 1"
       inkscape:vp_y="0 : 1000 : 0"
       inkscape:vp_x="0 : 0.5 : 1"
       sodipodi:type="inkscape:persp3d" />
    <inkscape:perspective
       id="perspective2838"
       inkscape:persp3d-origin="0.5 : 0.33333333 : 1"
       inkscape:vp_z="1 : 0.5 : 1"
       inkscape:vp_y="0 : 1000 : 0"
       inkscape:vp_x="0 : 0.5 : 1"
       sodipodi:type="inkscape:persp3d" />
  </defs>
  <sodipodi:namedview
     id="base"
     pagecolor="#ffffff"
     bordercolor="#666666"
     borderopacity="1.0"
     inkscape:pageopacity="0.0"
     inkscape:pageshadow="2"
     inkscape:zoom="0.35"
     inkscape:cx="688.5922"
     inkscape:cy="13.727729"
     inkscape:document-units="px"
     inkscape:current-layer="layer1"
     showgrid="false"
     inkscape:window-width="1600"
     inkscape:window-height="838"
     inkscape:window-x="-8"
     inkscape:window-y="-8"
     inkscape:window-maximized="1" />
  <metadata
     id="metadata7">
    <rdf:RDF>
      <cc:Work
         rdf:about="">
        <dc:format>image/svg+xml</dc:format>
        <dc:type
           rdf:resource="http://purl.org/dc/dcmitype/StillImage" />
        <dc:title></dc:title>
      </cc:Work>
    </rdf:RDF>
  </metadata>
  <g
     inkscape:label="Camada 1"
     inkscape:groupmode="layer"
     id="layer1"
     transform="translate(-258.05963,-330.78125)">
    <path
       style="fill:#000000;fill-opacity:1;stroke:#000000;stroke-width:1.08549428px;stroke-linecap:butt;stroke-linejoin:miter;stroke-opacity:1"
       d="m 407.98479,331.324 -10.35655,2.3689 -10.72523,4.32583 -6.87086,6.24841 -2.31263,8.23966 -0.36868,11.3982 3.04999,6.28275 0.36868,4.70347 -3.82087,3.12421 -1.91043,10.98622 -4.99393,14.93439 -3.41868,14.48808 -7.67524,18.84823 -3.82087,15.68968 -0.4022,17.26897 -4.59173,18.43625 0.40219,6.28275 -8.44612,13.73277 0,13.35512 3.45218,12.53116 2.31263,11.77585 -0.77087,11.77585 -4.99394,23.92936 -0.77088,10.19658 -9.18348,12.56549 -17.6296,13.73277 -17.22742,15.6897 -13.40654,12.1535 -5.7313,10.98623 -8.04392,3.53618 -8.81481,7.86202 -2.6813,5.87075 5.73129,10.60858 9.58568,9.40694 c 0,0 9.57132,9.43147 12.63567,10.60857 3.06435,1.17708 8.04393,5.87076 8.04393,5.87076 l 7.27304,1.16728 4.99394,-7.03804 -0.77087,-6.69473 c 0,0 -6.50218,-12.14859 -6.50218,-14.11042 0,-1.96182 -4.62525,-14.11043 -4.62525,-14.11043 l 3.0835,-3.15854 35.62789,-20.80515 27.18177,-22.35009 16.85873,-23.13972 13.03786,-20.42749 11.09392,23.96368 4.22306,13.73277 4.18954,31.37939 6.1335,6.6604 0,6.6604 -2.27911,6.69472 -3.45219,5.49311 -1.13956,7.82768 0.73736,7.45003 7.67525,2.3689 11.09391,2.74656 c 0,0 12.27657,3.93345 13.80874,4.32582 1.53218,0.39237 11.09392,5.08113 11.09392,5.08113 l 12.26699,2.3689 4.99394,-1.95692 -2.31263,-7.07238 c 0,0 -5.74088,-5.89038 -7.27305,-6.28275 -1.53218,-0.39235 -4.58696,-1.57435 -6.50218,-3.53618 -1.91522,-1.96182 -7.30656,-10.57424 -7.30656,-10.57424 l -4.96043,-6.69472 -1.13955,-10.19659 0.73737,-10.19658 0.40218,-7.07238 -0.77087,-7.82768 -1.91044,-18.43625 3.04999,-10.60857 0,-19.60353 -3.45217,-12.94314 -15.68567,-35.32756 -9.18347,-19.22588 -1.94396,-10.98622 -1.91043,-3.12421 11.49612,-12.56549 7.27304,-20.01552 0.4022,-13.73277 8.04392,-1.16728 22.22135,2.74655 25.27134,6.28275 27.58396,0.37764 7.64173,-1.16728 13.40654,0.78964 8.04394,0.7553 6.90436,-1.54494 2.68131,-3.53619 1.54176,-5.90509 22.22135,1.99125 25.64001,0.7553 27.21529,1.20162 19.13784,0.37766 19.90871,0 1.94395,-4.70348 -1.17307,-7.86201 -2.68131,-5.08113 -3.04999,-1.16729 -14.17742,0.75531 -31.40482,3.15854 -29.89661,3.53619 -17.59608,1.95691 -19.17136,2.33457 -0.36868,-4.29148 -1.91043,-3.53619 -6.53569,-1.16729 -6.09998,3.91384 -8.8148,-2.74655 -8.81481,-8.23967 -8.81479,-5.90509 -37.16965,-29.42247 -12.23348,-7.82768 -18.40048,-12.94315 -8.8148,-4.32581 -3.04999,-9.0293 0,-1.16728 13.77522,-5.11547 3.08351,-3.53618 -1.54175,-2.33458 -5.7313,-2.74656 -7.67524,-2.3689 -4.22307,-9.0293 -7.64172,-9.02929 -11.49612,-1.95692 z m 24.13178,80.43972 3.45219,1.16728 13.00434,5.49312 c 0,0 23.7679,10.61346 27.21529,11.3982 3.4474,0.78473 18.76916,10.57423 18.76916,10.57423 l 10.32304,5.9051 -4.96042,0 -14.9483,-2.36891 -14.54609,-4.29149 -14.57962,-4.73781 -11.09392,-2.74655 -11.49611,-6.6604 -1.54176,-3.12421 0.4022,-10.60856 z"
       id="path2844" />
  </g>
</svg>
